<?xml version="1.0" encoding="UTF-8"?>
<svg xmlns="http://www.w3.org/2000/svg" viewBox="0 0 48 48" width="48px" height="48px">
<g id="surface1231208">
<path style=" stroke:none;fill-rule:nonzero;fill:rgb(90.196079%,94.509804%,97.647059%);fill-opacity:1;" d="M 38.152344 9.855469 C 33.988281 5.691406 28.308594 3.589844 22.347656 4.066406 C 14.328125 4.710938 7.300781 10.289062 4.949219 17.980469 C 3.269531 23.476562 3.972656 29.214844 6.710938 33.953125 L 4.117188 42.558594 C 3.871094 43.386719 4.625 44.164062 5.457031 43.941406 L 14.464844 41.527344 C 17.382812 43.121094 20.667969 43.957031 24.011719 43.960938 L 24.019531 43.960938 C 32.410156 43.960938 40.160156 38.828125 42.84375 30.878906 C 45.457031 23.125 43.523438 15.230469 38.152344 9.855469 Z M 33.796875 31.109375 C 33.378906 32.273438 31.34375 33.398438 30.425781 33.480469 C 29.511719 33.5625 28.652344 33.894531 24.4375 32.230469 C 19.363281 30.230469 16.15625 25.03125 15.910156 24.699219 C 15.660156 24.363281 13.871094 21.992188 13.871094 19.535156 C 13.871094 17.078125 15.160156 15.871094 15.621094 15.375 C 16.078125 14.875 16.617188 14.75 16.953125 14.75 C 17.285156 14.75 17.617188 14.75 17.90625 14.761719 C 18.265625 14.777344 18.65625 14.792969 19.03125 15.625 C 19.476562 16.613281 20.445312 19.078125 20.570312 19.328125 C 20.695312 19.578125 20.777344 19.871094 20.613281 20.203125 C 20.445312 20.535156 20.363281 20.742188 20.113281 21.035156 C 19.863281 21.328125 19.589844 21.6875 19.367188 21.910156 C 19.117188 22.15625 18.855469 22.429688 19.144531 22.929688 C 19.4375 23.429688 20.4375 25.0625 21.921875 26.382812 C 23.828125 28.085938 25.4375 28.609375 25.9375 28.863281 C 26.4375 29.113281 26.726562 29.070312 27.019531 28.734375 C 27.308594 28.402344 28.265625 27.28125 28.597656 26.78125 C 28.929688 26.28125 29.265625 26.363281 29.722656 26.53125 C 30.179688 26.695312 32.632812 27.902344 33.132812 28.152344 C 33.632812 28.402344 33.964844 28.527344 34.089844 28.734375 C 34.210938 28.941406 34.210938 29.941406 33.796875 31.109375 Z M 33.796875 31.109375 "/>
</g>
</svg>
