<?xml version="1.0" encoding="UTF-8"?>
<svg xmlns="http://www.w3.org/2000/svg" viewBox="0 0 96 96" width="96px" height="96px">
<g id="surface1212785">
<path style=" stroke:none;fill-rule:nonzero;fill:rgb(90.196079%,94.509804%,97.647059%);fill-opacity:1;" d="M 47.359375 27.601562 C 47.140625 27.019531 46.761719 26.738281 46.199219 26.738281 C 45.679688 26.738281 45.300781 27.019531 45.101562 27.601562 C 44.878906 28.179688 44.761719 29.078125 44.761719 30.320312 L 44.761719 35.71875 C 44.761719 37.019531 44.859375 37.941406 45.078125 38.5 C 45.28125 39.058594 45.660156 39.339844 46.21875 39.339844 C 46.761719 39.339844 47.140625 39.058594 47.359375 38.5 C 47.578125 37.941406 47.679688 37 47.679688 35.71875 L 47.679688 30.320312 C 47.679688 29.078125 47.578125 28.179688 47.359375 27.601562 Z M 47.359375 27.601562 C 47.140625 27.019531 46.761719 26.738281 46.199219 26.738281 C 45.679688 26.738281 45.300781 27.019531 45.101562 27.601562 C 44.878906 28.179688 44.761719 29.078125 44.761719 30.320312 L 44.761719 35.71875 C 44.761719 37.019531 44.859375 37.941406 45.078125 38.5 C 45.28125 39.058594 45.660156 39.339844 46.21875 39.339844 C 46.761719 39.339844 47.140625 39.058594 47.359375 38.5 C 47.578125 37.941406 47.679688 37 47.679688 35.71875 L 47.679688 30.320312 C 47.679688 29.078125 47.578125 28.179688 47.359375 27.601562 Z M 28.460938 51.738281 L 28.460938 54.378906 L 31.71875 54.378906 L 31.71875 71.761719 L 34.941406 71.761719 L 34.941406 54.378906 L 38.21875 54.378906 L 38.21875 51.738281 Z M 42.878906 57.140625 L 42.878906 68.761719 C 42.738281 69.019531 42.539062 69.238281 42.28125 69.421875 C 42.019531 69.601562 41.738281 69.679688 41.460938 69.679688 C 41.121094 69.679688 40.878906 69.539062 40.738281 69.261719 C 40.601562 68.980469 40.539062 68.519531 40.539062 67.878906 L 40.539062 57.140625 L 37.238281 57.140625 L 37.238281 68.058594 C 37.238281 69.421875 37.460938 70.398438 37.921875 71.039062 C 38.378906 71.679688 39.101562 72 40.078125 72 C 41.480469 72 42.519531 71.320312 43.21875 69.960938 L 43.300781 69.960938 L 43.578125 71.761719 L 46.160156 71.761719 L 46.160156 57.140625 Z M 47.359375 27.601562 C 47.140625 27.019531 46.761719 26.738281 46.199219 26.738281 C 45.679688 26.738281 45.300781 27.019531 45.101562 27.601562 C 44.878906 28.179688 44.761719 29.078125 44.761719 30.320312 L 44.761719 35.71875 C 44.761719 37.019531 44.859375 37.941406 45.078125 38.5 C 45.28125 39.058594 45.660156 39.339844 46.21875 39.339844 C 46.761719 39.339844 47.140625 39.058594 47.359375 38.5 C 47.578125 37.941406 47.679688 37 47.679688 35.71875 L 47.679688 30.320312 C 47.679688 29.078125 47.578125 28.179688 47.359375 27.601562 Z M 57.058594 59.480469 C 56.859375 58.558594 56.539062 57.878906 56.101562 57.460938 C 55.660156 57.058594 55.039062 56.839844 54.261719 56.839844 C 53.640625 56.839844 53.078125 57.019531 52.558594 57.359375 C 52.039062 57.699219 51.640625 58.140625 51.339844 58.699219 L 51.320312 58.699219 L 51.320312 51 L 48.140625 51 L 48.140625 71.761719 L 50.859375 71.761719 L 51.199219 70.378906 L 51.28125 70.378906 C 51.539062 70.878906 51.898438 71.261719 52.421875 71.539062 C 52.941406 71.839844 53.5 71.980469 54.121094 71.980469 C 55.21875 71.980469 56.039062 71.460938 56.578125 70.441406 C 57.101562 69.421875 57.359375 67.800781 57.359375 65.621094 L 57.359375 63.320312 C 57.359375 61.679688 57.261719 60.398438 57.058594 59.480469 Z M 54.039062 65.441406 C 54.039062 66.5 54 67.339844 53.898438 67.941406 C 53.820312 68.558594 53.679688 68.980469 53.460938 69.238281 C 53.261719 69.480469 52.980469 69.621094 52.640625 69.621094 C 52.359375 69.621094 52.121094 69.539062 51.878906 69.421875 C 51.660156 69.300781 51.460938 69.101562 51.320312 68.839844 L 51.320312 60.539062 C 51.441406 60.140625 51.621094 59.820312 51.898438 59.558594 C 52.160156 59.300781 52.460938 59.179688 52.78125 59.179688 C 53.121094 59.179688 53.359375 59.320312 53.558594 59.578125 C 53.738281 59.839844 53.859375 60.28125 53.941406 60.898438 C 54 61.519531 54.039062 62.398438 54.039062 63.558594 Z M 67.539062 65.539062 L 67.539062 63.039062 C 67.539062 61.5 67.421875 60.28125 67.160156 59.398438 C 66.921875 58.539062 66.5 57.878906 65.898438 57.480469 C 65.28125 57.058594 64.421875 56.859375 63.28125 56.859375 C 61.660156 56.859375 60.5 57.359375 59.820312 58.378906 C 59.140625 59.378906 58.800781 60.980469 58.800781 63.179688 L 58.800781 65.738281 C 58.800781 67.859375 59.140625 69.441406 59.78125 70.460938 C 60.441406 71.480469 61.578125 71.980469 63.199219 71.980469 C 64.558594 71.980469 65.601562 71.660156 66.339844 70.980469 C 67.078125 70.320312 67.441406 69.300781 67.441406 67.960938 C 67.441406 67.71875 67.441406 67.558594 67.421875 67.421875 L 64.578125 67.261719 C 64.578125 68.140625 64.460938 68.78125 64.28125 69.160156 C 64.101562 69.539062 63.761719 69.738281 63.28125 69.738281 C 62.921875 69.738281 62.640625 69.640625 62.460938 69.421875 C 62.28125 69.199219 62.179688 68.859375 62.121094 68.398438 C 62.058594 67.921875 62.039062 67.21875 62.039062 66.28125 L 62.039062 65.539062 Z M 62.019531 63.578125 L 62.019531 62.539062 C 62.019531 61.578125 62.058594 60.878906 62.121094 60.398438 C 62.160156 59.941406 62.28125 59.601562 62.441406 59.398438 C 62.621094 59.179688 62.878906 59.078125 63.21875 59.078125 C 63.578125 59.078125 63.820312 59.179688 64 59.378906 C 64.160156 59.578125 64.28125 59.921875 64.339844 60.398438 C 64.398438 60.878906 64.441406 61.601562 64.441406 62.539062 L 64.441406 63.578125 Z M 67.539062 65.539062 L 67.539062 63.039062 C 67.539062 61.5 67.421875 60.28125 67.160156 59.398438 C 66.921875 58.539062 66.5 57.878906 65.898438 57.480469 C 65.28125 57.058594 64.421875 56.859375 63.28125 56.859375 C 61.660156 56.859375 60.5 57.359375 59.820312 58.378906 C 59.140625 59.378906 58.800781 60.980469 58.800781 63.179688 L 58.800781 65.738281 C 58.800781 67.859375 59.140625 69.441406 59.78125 70.460938 C 60.441406 71.480469 61.578125 71.980469 63.199219 71.980469 C 64.558594 71.980469 65.601562 71.660156 66.339844 70.980469 C 67.078125 70.320312 67.441406 69.300781 67.441406 67.960938 C 67.441406 67.71875 67.441406 67.558594 67.421875 67.421875 L 64.578125 67.261719 C 64.578125 68.140625 64.460938 68.78125 64.28125 69.160156 C 64.101562 69.539062 63.761719 69.738281 63.28125 69.738281 C 62.921875 69.738281 62.640625 69.640625 62.460938 69.421875 C 62.28125 69.199219 62.179688 68.859375 62.121094 68.398438 C 62.058594 67.921875 62.039062 67.21875 62.039062 66.28125 L 62.039062 65.539062 Z M 62.019531 63.578125 L 62.019531 62.539062 C 62.019531 61.578125 62.058594 60.878906 62.121094 60.398438 C 62.160156 59.941406 62.28125 59.601562 62.441406 59.398438 C 62.621094 59.179688 62.878906 59.078125 63.21875 59.078125 C 63.578125 59.078125 63.820312 59.179688 64 59.378906 C 64.160156 59.578125 64.28125 59.921875 64.339844 60.398438 C 64.398438 60.878906 64.441406 61.601562 64.441406 62.539062 L 64.441406 63.578125 Z M 56.101562 57.460938 C 55.660156 57.058594 55.039062 56.839844 54.261719 56.839844 C 53.640625 56.839844 53.078125 57.019531 52.558594 57.359375 C 52.039062 57.699219 51.640625 58.140625 51.339844 58.699219 L 51.320312 58.699219 L 51.320312 51 L 48.140625 51 L 48.140625 71.761719 L 50.859375 71.761719 L 51.199219 70.378906 L 51.28125 70.378906 C 51.539062 70.878906 51.898438 71.261719 52.421875 71.539062 C 52.941406 71.839844 53.5 71.980469 54.121094 71.980469 C 55.21875 71.980469 56.039062 71.460938 56.578125 70.441406 C 57.101562 69.421875 57.359375 67.800781 57.359375 65.621094 L 57.359375 63.320312 C 57.359375 61.679688 57.261719 60.398438 57.058594 59.480469 C 56.859375 58.558594 56.539062 57.878906 56.101562 57.460938 Z M 54.039062 65.441406 C 54.039062 66.5 54 67.339844 53.898438 67.941406 C 53.820312 68.558594 53.679688 68.980469 53.460938 69.238281 C 53.261719 69.480469 52.980469 69.621094 52.640625 69.621094 C 52.359375 69.621094 52.121094 69.539062 51.878906 69.421875 C 51.660156 69.300781 51.460938 69.101562 51.320312 68.839844 L 51.320312 60.539062 C 51.441406 60.140625 51.621094 59.820312 51.898438 59.558594 C 52.160156 59.300781 52.460938 59.179688 52.78125 59.179688 C 53.121094 59.179688 53.359375 59.320312 53.558594 59.578125 C 53.738281 59.839844 53.859375 60.28125 53.941406 60.898438 C 54 61.519531 54.039062 62.398438 54.039062 63.558594 Z M 42.878906 68.761719 C 42.738281 69.019531 42.539062 69.238281 42.28125 69.421875 C 42.019531 69.601562 41.738281 69.679688 41.460938 69.679688 C 41.121094 69.679688 40.878906 69.539062 40.738281 69.261719 C 40.601562 68.980469 40.539062 68.519531 40.539062 67.878906 L 40.539062 57.140625 L 37.238281 57.140625 L 37.238281 68.058594 C 37.238281 69.421875 37.460938 70.398438 37.921875 71.039062 C 38.378906 71.679688 39.101562 72 40.078125 72 C 41.480469 72 42.519531 71.320312 43.21875 69.960938 L 43.300781 69.960938 L 43.578125 71.761719 L 46.160156 71.761719 L 46.160156 57.140625 L 42.878906 57.140625 Z M 38.21875 51.738281 L 28.460938 51.738281 L 28.460938 54.378906 L 31.71875 54.378906 L 31.71875 71.761719 L 34.941406 71.761719 L 34.941406 54.378906 L 38.21875 54.378906 Z M 47.359375 27.601562 C 47.140625 27.019531 46.761719 26.738281 46.199219 26.738281 C 45.679688 26.738281 45.300781 27.019531 45.101562 27.601562 C 44.878906 28.179688 44.761719 29.078125 44.761719 30.320312 L 44.761719 35.71875 C 44.761719 37.019531 44.859375 37.941406 45.078125 38.5 C 45.28125 39.058594 45.660156 39.339844 46.21875 39.339844 C 46.761719 39.339844 47.140625 39.058594 47.359375 38.5 C 47.578125 37.941406 47.679688 37 47.679688 35.71875 L 47.679688 30.320312 C 47.679688 29.078125 47.578125 28.179688 47.359375 27.601562 Z M 73 12 L 23 12 C 16.941406 12 12 16.941406 12 23 L 12 73 C 12 79.058594 16.941406 84 23 84 L 73 84 C 79.058594 84 84 79.058594 84 73 L 84 23 C 84 16.941406 79.058594 12 73 12 Z M 53.640625 24.398438 L 57.539062 24.398438 L 57.539062 37.121094 C 57.539062 37.878906 57.621094 38.441406 57.800781 38.761719 C 57.960938 39.101562 58.238281 39.261719 58.640625 39.261719 C 58.980469 39.261719 59.300781 39.160156 59.621094 38.960938 C 59.921875 38.738281 60.160156 38.480469 60.300781 38.160156 L 60.300781 24.398438 L 64.199219 24.398438 L 64.199219 41.71875 L 61.160156 41.71875 L 60.820312 39.601562 L 60.738281 39.601562 C 59.898438 41.199219 58.660156 42 57 42 C 55.859375 42 55 41.621094 54.460938 40.878906 C 53.898438 40.121094 53.640625 38.941406 53.640625 37.339844 Z M 43.140625 24.820312 C 43.941406 24.300781 44.980469 24.058594 46.300781 24.058594 C 47.578125 24.058594 48.601562 24.320312 49.378906 24.839844 C 50.140625 25.378906 50.71875 26.199219 51.058594 27.320312 C 51.421875 28.441406 51.601562 29.941406 51.601562 31.800781 L 51.601562 34.320312 C 51.601562 36.160156 51.421875 37.640625 51.078125 38.761719 C 50.738281 39.878906 50.160156 40.699219 49.378906 41.21875 C 48.601562 41.738281 47.539062 42 46.199219 42 C 44.839844 42 43.761719 41.738281 42.980469 41.199219 C 42.179688 40.679688 41.640625 39.859375 41.300781 38.738281 C 40.980469 37.640625 40.800781 36.160156 40.800781 34.300781 L 40.800781 31.800781 C 40.800781 29.921875 41 28.421875 41.378906 27.300781 C 41.738281 26.179688 42.339844 25.339844 43.140625 24.820312 Z M 32.921875 18 L 34.460938 25.261719 C 34.859375 27.058594 35.160156 28.578125 35.339844 29.839844 L 35.460938 29.839844 C 35.578125 28.941406 35.878906 27.421875 36.339844 25.300781 L 37.941406 18 L 41.820312 18 L 37.320312 34.019531 L 37.320312 41.71875 L 33.480469 41.71875 L 33.480469 34.019531 L 29.039062 18 Z M 75.898438 72 C 75.898438 75.300781 73.199219 78 69.898438 78 L 26.101562 78 C 22.800781 78 20.101562 75.300781 20.101562 72 L 20.101562 51.5 C 20.101562 48.199219 22.800781 45.5 26.101562 45.5 L 69.898438 45.5 C 73.199219 45.5 75.898438 48.199219 75.898438 51.5 Z M 65.898438 57.480469 C 65.28125 57.058594 64.421875 56.859375 63.28125 56.859375 C 61.660156 56.859375 60.5 57.359375 59.820312 58.378906 C 59.140625 59.378906 58.800781 60.980469 58.800781 63.179688 L 58.800781 65.738281 C 58.800781 67.859375 59.140625 69.441406 59.78125 70.460938 C 60.441406 71.480469 61.578125 71.980469 63.199219 71.980469 C 64.558594 71.980469 65.601562 71.660156 66.339844 70.980469 C 67.078125 70.320312 67.441406 69.300781 67.441406 67.960938 C 67.441406 67.71875 67.441406 67.558594 67.421875 67.421875 L 64.578125 67.261719 C 64.578125 68.140625 64.460938 68.78125 64.28125 69.160156 C 64.101562 69.539062 63.761719 69.738281 63.28125 69.738281 C 62.921875 69.738281 62.640625 69.640625 62.460938 69.421875 C 62.28125 69.199219 62.179688 68.859375 62.121094 68.398438 C 62.058594 67.921875 62.039062 67.21875 62.039062 66.28125 L 62.039062 65.539062 L 67.539062 65.539062 L 67.539062 63.039062 C 67.539062 61.5 67.421875 60.28125 67.160156 59.398438 C 66.921875 58.539062 66.5 57.878906 65.898438 57.480469 Z M 64.441406 63.578125 L 62.019531 63.578125 L 62.019531 62.539062 C 62.019531 61.578125 62.058594 60.878906 62.121094 60.398438 C 62.160156 59.941406 62.28125 59.601562 62.441406 59.398438 C 62.621094 59.179688 62.878906 59.078125 63.21875 59.078125 C 63.578125 59.078125 63.820312 59.179688 64 59.378906 C 64.160156 59.578125 64.28125 59.921875 64.339844 60.398438 C 64.398438 60.878906 64.441406 61.601562 64.441406 62.539062 Z M 56.101562 57.460938 C 55.660156 57.058594 55.039062 56.839844 54.261719 56.839844 C 53.640625 56.839844 53.078125 57.019531 52.558594 57.359375 C 52.039062 57.699219 51.640625 58.140625 51.339844 58.699219 L 51.320312 58.699219 L 51.320312 51 L 48.140625 51 L 48.140625 71.761719 L 50.859375 71.761719 L 51.199219 70.378906 L 51.28125 70.378906 C 51.539062 70.878906 51.898438 71.261719 52.421875 71.539062 C 52.941406 71.839844 53.5 71.980469 54.121094 71.980469 C 55.21875 71.980469 56.039062 71.460938 56.578125 70.441406 C 57.101562 69.421875 57.359375 67.800781 57.359375 65.621094 L 57.359375 63.320312 C 57.359375 61.679688 57.261719 60.398438 57.058594 59.480469 C 56.859375 58.558594 56.539062 57.878906 56.101562 57.460938 Z M 54.039062 65.441406 C 54.039062 66.5 54 67.339844 53.898438 67.941406 C 53.820312 68.558594 53.679688 68.980469 53.460938 69.238281 C 53.261719 69.480469 52.980469 69.621094 52.640625 69.621094 C 52.359375 69.621094 52.121094 69.539062 51.878906 69.421875 C 51.660156 69.300781 51.460938 69.101562 51.320312 68.839844 L 51.320312 60.539062 C 51.441406 60.140625 51.621094 59.820312 51.898438 59.558594 C 52.160156 59.300781 52.460938 59.179688 52.78125 59.179688 C 53.121094 59.179688 53.359375 59.320312 53.558594 59.578125 C 53.738281 59.839844 53.859375 60.28125 53.941406 60.898438 C 54 61.519531 54.039062 62.398438 54.039062 63.558594 Z M 46.21875 39.339844 C 46.761719 39.339844 47.140625 39.058594 47.359375 38.5 C 47.578125 37.941406 47.679688 37 47.679688 35.71875 L 47.679688 30.320312 C 47.679688 29.078125 47.578125 28.179688 47.359375 27.601562 C 47.140625 27.019531 46.761719 26.738281 46.199219 26.738281 C 45.679688 26.738281 45.300781 27.019531 45.101562 27.601562 C 44.878906 28.179688 44.761719 29.078125 44.761719 30.320312 L 44.761719 35.71875 C 44.761719 37.019531 44.859375 37.941406 45.078125 38.5 C 45.28125 39.058594 45.660156 39.339844 46.21875 39.339844 Z M 42.878906 68.761719 C 42.738281 69.019531 42.539062 69.238281 42.28125 69.421875 C 42.019531 69.601562 41.738281 69.679688 41.460938 69.679688 C 41.121094 69.679688 40.878906 69.539062 40.738281 69.261719 C 40.601562 68.980469 40.539062 68.519531 40.539062 67.878906 L 40.539062 57.140625 L 37.238281 57.140625 L 37.238281 68.058594 C 37.238281 69.421875 37.460938 70.398438 37.921875 71.039062 C 38.378906 71.679688 39.101562 72 40.078125 72 C 41.480469 72 42.519531 71.320312 43.21875 69.960938 L 43.300781 69.960938 L 43.578125 71.761719 L 46.160156 71.761719 L 46.160156 57.140625 L 42.878906 57.140625 Z M 38.21875 51.738281 L 28.460938 51.738281 L 28.460938 54.378906 L 31.71875 54.378906 L 31.71875 71.761719 L 34.941406 71.761719 L 34.941406 54.378906 L 38.21875 54.378906 Z M 47.359375 27.601562 C 47.140625 27.019531 46.761719 26.738281 46.199219 26.738281 C 45.679688 26.738281 45.300781 27.019531 45.101562 27.601562 C 44.878906 28.179688 44.761719 29.078125 44.761719 30.320312 L 44.761719 35.71875 C 44.761719 37.019531 44.859375 37.941406 45.078125 38.5 C 45.28125 39.058594 45.660156 39.339844 46.21875 39.339844 C 46.761719 39.339844 47.140625 39.058594 47.359375 38.5 C 47.578125 37.941406 47.679688 37 47.679688 35.71875 L 47.679688 30.320312 C 47.679688 29.078125 47.578125 28.179688 47.359375 27.601562 Z M 28.460938 51.738281 L 28.460938 54.378906 L 31.71875 54.378906 L 31.71875 71.761719 L 34.941406 71.761719 L 34.941406 54.378906 L 38.21875 54.378906 L 38.21875 51.738281 Z M 42.878906 57.140625 L 42.878906 68.761719 C 42.738281 69.019531 42.539062 69.238281 42.28125 69.421875 C 42.019531 69.601562 41.738281 69.679688 41.460938 69.679688 C 41.121094 69.679688 40.878906 69.539062 40.738281 69.261719 C 40.601562 68.980469 40.539062 68.519531 40.539062 67.878906 L 40.539062 57.140625 L 37.238281 57.140625 L 37.238281 68.058594 C 37.238281 69.421875 37.460938 70.398438 37.921875 71.039062 C 38.378906 71.679688 39.101562 72 40.078125 72 C 41.480469 72 42.519531 71.320312 43.21875 69.960938 L 43.300781 69.960938 L 43.578125 71.761719 L 46.160156 71.761719 L 46.160156 57.140625 Z M 57.058594 59.480469 C 56.859375 58.558594 56.539062 57.878906 56.101562 57.460938 C 55.660156 57.058594 55.039062 56.839844 54.261719 56.839844 C 53.640625 56.839844 53.078125 57.019531 52.558594 57.359375 C 52.039062 57.699219 51.640625 58.140625 51.339844 58.699219 L 51.320312 58.699219 L 51.320312 51 L 48.140625 51 L 48.140625 71.761719 L 50.859375 71.761719 L 51.199219 70.378906 L 51.28125 70.378906 C 51.539062 70.878906 51.898438 71.261719 52.421875 71.539062 C 52.941406 71.839844 53.5 71.980469 54.121094 71.980469 C 55.21875 71.980469 56.039062 71.460938 56.578125 70.441406 C 57.101562 69.421875 57.359375 67.800781 57.359375 65.621094 L 57.359375 63.320312 C 57.359375 61.679688 57.261719 60.398438 57.058594 59.480469 Z M 54.039062 65.441406 C 54.039062 66.5 54 67.339844 53.898438 67.941406 C 53.820312 68.558594 53.679688 68.980469 53.460938 69.238281 C 53.261719 69.480469 52.980469 69.621094 52.640625 69.621094 C 52.359375 69.621094 52.121094 69.539062 51.878906 69.421875 C 51.660156 69.300781 51.460938 69.101562 51.320312 68.839844 L 51.320312 60.539062 C 51.441406 60.140625 51.621094 59.820312 51.898438 59.558594 C 52.160156 59.300781 52.460938 59.179688 52.78125 59.179688 C 53.121094 59.179688 53.359375 59.320312 53.558594 59.578125 C 53.738281 59.839844 53.859375 60.28125 53.941406 60.898438 C 54 61.519531 54.039062 62.398438 54.039062 63.558594 Z M 67.539062 65.539062 L 67.539062 63.039062 C 67.539062 61.5 67.421875 60.28125 67.160156 59.398438 C 66.921875 58.539062 66.5 57.878906 65.898438 57.480469 C 65.28125 57.058594 64.421875 56.859375 63.28125 56.859375 C 61.660156 56.859375 60.5 57.359375 59.820312 58.378906 C 59.140625 59.378906 58.800781 60.980469 58.800781 63.179688 L 58.800781 65.738281 C 58.800781 67.859375 59.140625 69.441406 59.78125 70.460938 C 60.441406 71.480469 61.578125 71.980469 63.199219 71.980469 C 64.558594 71.980469 65.601562 71.660156 66.339844 70.980469 C 67.078125 70.320312 67.441406 69.300781 67.441406 67.960938 C 67.441406 67.71875 67.441406 67.558594 67.421875 67.421875 L 64.578125 67.261719 C 64.578125 68.140625 64.460938 68.78125 64.28125 69.160156 C 64.101562 69.539062 63.761719 69.738281 63.28125 69.738281 C 62.921875 69.738281 62.640625 69.640625 62.460938 69.421875 C 62.28125 69.199219 62.179688 68.859375 62.121094 68.398438 C 62.058594 67.921875 62.039062 67.21875 62.039062 66.28125 L 62.039062 65.539062 Z M 62.019531 63.578125 L 62.019531 62.539062 C 62.019531 61.578125 62.058594 60.878906 62.121094 60.398438 C 62.160156 59.941406 62.28125 59.601562 62.441406 59.398438 C 62.621094 59.179688 62.878906 59.078125 63.21875 59.078125 C 63.578125 59.078125 63.820312 59.179688 64 59.378906 C 64.160156 59.578125 64.28125 59.921875 64.339844 60.398438 C 64.398438 60.878906 64.441406 61.601562 64.441406 62.539062 L 64.441406 63.578125 Z M 67.539062 65.539062 L 67.539062 63.039062 C 67.539062 61.5 67.421875 60.28125 67.160156 59.398438 C 66.921875 58.539062 66.5 57.878906 65.898438 57.480469 C 65.28125 57.058594 64.421875 56.859375 63.28125 56.859375 C 61.660156 56.859375 60.5 57.359375 59.820312 58.378906 C 59.140625 59.378906 58.800781 60.980469 58.800781 63.179688 L 58.800781 65.738281 C 58.800781 67.859375 59.140625 69.441406 59.78125 70.460938 C 60.441406 71.480469 61.578125 71.980469 63.199219 71.980469 C 64.558594 71.980469 65.601562 71.660156 66.339844 70.980469 C 67.078125 70.320312 67.441406 69.300781 67.441406 67.960938 C 67.441406 67.71875 67.441406 67.558594 67.421875 67.421875 L 64.578125 67.261719 C 64.578125 68.140625 64.460938 68.78125 64.28125 69.160156 C 64.101562 69.539062 63.761719 69.738281 63.28125 69.738281 C 62.921875 69.738281 62.640625 69.640625 62.460938 69.421875 C 62.28125 69.199219 62.179688 68.859375 62.121094 68.398438 C 62.058594 67.921875 62.039062 67.21875 62.039062 66.28125 L 62.039062 65.539062 Z M 62.019531 63.578125 L 62.019531 62.539062 C 62.019531 61.578125 62.058594 60.878906 62.121094 60.398438 C 62.160156 59.941406 62.28125 59.601562 62.441406 59.398438 C 62.621094 59.179688 62.878906 59.078125 63.21875 59.078125 C 63.578125 59.078125 63.820312 59.179688 64 59.378906 C 64.160156 59.578125 64.28125 59.921875 64.339844 60.398438 C 64.398438 60.878906 64.441406 61.601562 64.441406 62.539062 L 64.441406 63.578125 Z M 57.058594 59.480469 C 56.859375 58.558594 56.539062 57.878906 56.101562 57.460938 C 55.660156 57.058594 55.039062 56.839844 54.261719 56.839844 C 53.640625 56.839844 53.078125 57.019531 52.558594 57.359375 C 52.039062 57.699219 51.640625 58.140625 51.339844 58.699219 L 51.320312 58.699219 L 51.320312 51 L 48.140625 51 L 48.140625 71.761719 L 50.859375 71.761719 L 51.199219 70.378906 L 51.28125 70.378906 C 51.539062 70.878906 51.898438 71.261719 52.421875 71.539062 C 52.941406 71.839844 53.5 71.980469 54.121094 71.980469 C 55.21875 71.980469 56.039062 71.460938 56.578125 70.441406 C 57.101562 69.421875 57.359375 67.800781 57.359375 65.621094 L 57.359375 63.320312 C 57.359375 61.679688 57.261719 60.398438 57.058594 59.480469 Z M 54.039062 65.441406 C 54.039062 66.5 54 67.339844 53.898438 67.941406 C 53.820312 68.558594 53.679688 68.980469 53.460938 69.238281 C 53.261719 69.480469 52.980469 69.621094 52.640625 69.621094 C 52.359375 69.621094 52.121094 69.539062 51.878906 69.421875 C 51.660156 69.300781 51.460938 69.101562 51.320312 68.839844 L 51.320312 60.539062 C 51.441406 60.140625 51.621094 59.820312 51.898438 59.558594 C 52.160156 59.300781 52.460938 59.179688 52.78125 59.179688 C 53.121094 59.179688 53.359375 59.320312 53.558594 59.578125 C 53.738281 59.839844 53.859375 60.28125 53.941406 60.898438 C 54 61.519531 54.039062 62.398438 54.039062 63.558594 Z M 47.359375 27.601562 C 47.140625 27.019531 46.761719 26.738281 46.199219 26.738281 C 45.679688 26.738281 45.300781 27.019531 45.101562 27.601562 C 44.878906 28.179688 44.761719 29.078125 44.761719 30.320312 L 44.761719 35.71875 C 44.761719 37.019531 44.859375 37.941406 45.078125 38.5 C 45.28125 39.058594 45.660156 39.339844 46.21875 39.339844 C 46.761719 39.339844 47.140625 39.058594 47.359375 38.5 C 47.578125 37.941406 47.679688 37 47.679688 35.71875 L 47.679688 30.320312 C 47.679688 29.078125 47.578125 28.179688 47.359375 27.601562 Z M 42.878906 57.140625 L 42.878906 68.761719 C 42.738281 69.019531 42.539062 69.238281 42.28125 69.421875 C 42.019531 69.601562 41.738281 69.679688 41.460938 69.679688 C 41.121094 69.679688 40.878906 69.539062 40.738281 69.261719 C 40.601562 68.980469 40.539062 68.519531 40.539062 67.878906 L 40.539062 57.140625 L 37.238281 57.140625 L 37.238281 68.058594 C 37.238281 69.421875 37.460938 70.398438 37.921875 71.039062 C 38.378906 71.679688 39.101562 72 40.078125 72 C 41.480469 72 42.519531 71.320312 43.21875 69.960938 L 43.300781 69.960938 L 43.578125 71.761719 L 46.160156 71.761719 L 46.160156 57.140625 Z M 28.460938 51.738281 L 28.460938 54.378906 L 31.71875 54.378906 L 31.71875 71.761719 L 34.941406 71.761719 L 34.941406 54.378906 L 38.21875 54.378906 L 38.21875 51.738281 Z M 47.359375 27.601562 C 47.140625 27.019531 46.761719 26.738281 46.199219 26.738281 C 45.679688 26.738281 45.300781 27.019531 45.101562 27.601562 C 44.878906 28.179688 44.761719 29.078125 44.761719 30.320312 L 44.761719 35.71875 C 44.761719 37.019531 44.859375 37.941406 45.078125 38.5 C 45.28125 39.058594 45.660156 39.339844 46.21875 39.339844 C 46.761719 39.339844 47.140625 39.058594 47.359375 38.5 C 47.578125 37.941406 47.679688 37 47.679688 35.71875 L 47.679688 30.320312 C 47.679688 29.078125 47.578125 28.179688 47.359375 27.601562 Z M 47.359375 27.601562 C 47.140625 27.019531 46.761719 26.738281 46.199219 26.738281 C 45.679688 26.738281 45.300781 27.019531 45.101562 27.601562 C 44.878906 28.179688 44.761719 29.078125 44.761719 30.320312 L 44.761719 35.71875 C 44.761719 37.019531 44.859375 37.941406 45.078125 38.5 C 45.28125 39.058594 45.660156 39.339844 46.21875 39.339844 C 46.761719 39.339844 47.140625 39.058594 47.359375 38.5 C 47.578125 37.941406 47.679688 37 47.679688 35.71875 L 47.679688 30.320312 C 47.679688 29.078125 47.578125 28.179688 47.359375 27.601562 Z M 47.359375 27.601562 C 47.140625 27.019531 46.761719 26.738281 46.199219 26.738281 C 45.679688 26.738281 45.300781 27.019531 45.101562 27.601562 C 44.878906 28.179688 44.761719 29.078125 44.761719 30.320312 L 44.761719 35.71875 C 44.761719 37.019531 44.859375 37.941406 45.078125 38.5 C 45.28125 39.058594 45.660156 39.339844 46.21875 39.339844 C 46.761719 39.339844 47.140625 39.058594 47.359375 38.5 C 47.578125 37.941406 47.679688 37 47.679688 35.71875 L 47.679688 30.320312 C 47.679688 29.078125 47.578125 28.179688 47.359375 27.601562 Z M 47.359375 27.601562 C 47.140625 27.019531 46.761719 26.738281 46.199219 26.738281 C 45.679688 26.738281 45.300781 27.019531 45.101562 27.601562 C 44.878906 28.179688 44.761719 29.078125 44.761719 30.320312 L 44.761719 35.71875 C 44.761719 37.019531 44.859375 37.941406 45.078125 38.5 C 45.28125 39.058594 45.660156 39.339844 46.21875 39.339844 C 46.761719 39.339844 47.140625 39.058594 47.359375 38.5 C 47.578125 37.941406 47.679688 37 47.679688 35.71875 L 47.679688 30.320312 C 47.679688 29.078125 47.578125 28.179688 47.359375 27.601562 Z M 57.058594 59.480469 C 56.859375 58.558594 56.539062 57.878906 56.101562 57.460938 C 55.660156 57.058594 55.039062 56.839844 54.261719 56.839844 C 53.640625 56.839844 53.078125 57.019531 52.558594 57.359375 C 52.039062 57.699219 51.640625 58.140625 51.339844 58.699219 L 51.320312 58.699219 L 51.320312 51 L 48.140625 51 L 48.140625 71.761719 L 50.859375 71.761719 L 51.199219 70.378906 L 51.28125 70.378906 C 51.539062 70.878906 51.898438 71.261719 52.421875 71.539062 C 52.941406 71.839844 53.5 71.980469 54.121094 71.980469 C 55.21875 71.980469 56.039062 71.460938 56.578125 70.441406 C 57.101562 69.421875 57.359375 67.800781 57.359375 65.621094 L 57.359375 63.320312 C 57.359375 61.679688 57.261719 60.398438 57.058594 59.480469 Z M 54.039062 65.441406 C 54.039062 66.5 54 67.339844 53.898438 67.941406 C 53.820312 68.558594 53.679688 68.980469 53.460938 69.238281 C 53.261719 69.480469 52.980469 69.621094 52.640625 69.621094 C 52.359375 69.621094 52.121094 69.539062 51.878906 69.421875 C 51.660156 69.300781 51.460938 69.101562 51.320312 68.839844 L 51.320312 60.539062 C 51.441406 60.140625 51.621094 59.820312 51.898438 59.558594 C 52.160156 59.300781 52.460938 59.179688 52.78125 59.179688 C 53.121094 59.179688 53.359375 59.320312 53.558594 59.578125 C 53.738281 59.839844 53.859375 60.28125 53.941406 60.898438 C 54 61.519531 54.039062 62.398438 54.039062 63.558594 Z M 42.878906 57.140625 L 42.878906 68.761719 C 42.738281 69.019531 42.539062 69.238281 42.28125 69.421875 C 42.019531 69.601562 41.738281 69.679688 41.460938 69.679688 C 41.121094 69.679688 40.878906 69.539062 40.738281 69.261719 C 40.601562 68.980469 40.539062 68.519531 40.539062 67.878906 L 40.539062 57.140625 L 37.238281 57.140625 L 37.238281 68.058594 C 37.238281 69.421875 37.460938 70.398438 37.921875 71.039062 C 38.378906 71.679688 39.101562 72 40.078125 72 C 41.480469 72 42.519531 71.320312 43.21875 69.960938 L 43.300781 69.960938 L 43.578125 71.761719 L 46.160156 71.761719 L 46.160156 57.140625 Z M 28.460938 51.738281 L 28.460938 54.378906 L 31.71875 54.378906 L 31.71875 71.761719 L 34.941406 71.761719 L 34.941406 54.378906 L 38.21875 54.378906 L 38.21875 51.738281 Z M 67.539062 65.539062 L 67.539062 63.039062 C 67.539062 61.5 67.421875 60.28125 67.160156 59.398438 C 66.921875 58.539062 66.5 57.878906 65.898438 57.480469 C 65.28125 57.058594 64.421875 56.859375 63.28125 56.859375 C 61.660156 56.859375 60.5 57.359375 59.820312 58.378906 C 59.140625 59.378906 58.800781 60.980469 58.800781 63.179688 L 58.800781 65.738281 C 58.800781 67.859375 59.140625 69.441406 59.78125 70.460938 C 60.441406 71.480469 61.578125 71.980469 63.199219 71.980469 C 64.558594 71.980469 65.601562 71.660156 66.339844 70.980469 C 67.078125 70.320312 67.441406 69.300781 67.441406 67.960938 C 67.441406 67.71875 67.441406 67.558594 67.421875 67.421875 L 64.578125 67.261719 C 64.578125 68.140625 64.460938 68.78125 64.28125 69.160156 C 64.101562 69.539062 63.761719 69.738281 63.28125 69.738281 C 62.921875 69.738281 62.640625 69.640625 62.460938 69.421875 C 62.28125 69.199219 62.179688 68.859375 62.121094 68.398438 C 62.058594 67.921875 62.039062 67.21875 62.039062 66.28125 L 62.039062 65.539062 Z M 62.019531 63.578125 L 62.019531 62.539062 C 62.019531 61.578125 62.058594 60.878906 62.121094 60.398438 C 62.160156 59.941406 62.28125 59.601562 62.441406 59.398438 C 62.621094 59.179688 62.878906 59.078125 63.21875 59.078125 C 63.578125 59.078125 63.820312 59.179688 64 59.378906 C 64.160156 59.578125 64.28125 59.921875 64.339844 60.398438 C 64.398438 60.878906 64.441406 61.601562 64.441406 62.539062 L 64.441406 63.578125 Z M 57.058594 59.480469 C 56.859375 58.558594 56.539062 57.878906 56.101562 57.460938 C 55.660156 57.058594 55.039062 56.839844 54.261719 56.839844 C 53.640625 56.839844 53.078125 57.019531 52.558594 57.359375 C 52.039062 57.699219 51.640625 58.140625 51.339844 58.699219 L 51.320312 58.699219 L 51.320312 51 L 48.140625 51 L 48.140625 71.761719 L 50.859375 71.761719 L 51.199219 70.378906 L 51.28125 70.378906 C 51.539062 70.878906 51.898438 71.261719 52.421875 71.539062 C 52.941406 71.839844 53.5 71.980469 54.121094 71.980469 C 55.21875 71.980469 56.039062 71.460938 56.578125 70.441406 C 57.101562 69.421875 57.359375 67.800781 57.359375 65.621094 L 57.359375 63.320312 C 57.359375 61.679688 57.261719 60.398438 57.058594 59.480469 Z M 54.039062 65.441406 C 54.039062 66.5 54 67.339844 53.898438 67.941406 C 53.820312 68.558594 53.679688 68.980469 53.460938 69.238281 C 53.261719 69.480469 52.980469 69.621094 52.640625 69.621094 C 52.359375 69.621094 52.121094 69.539062 51.878906 69.421875 C 51.660156 69.300781 51.460938 69.101562 51.320312 68.839844 L 51.320312 60.539062 C 51.441406 60.140625 51.621094 59.820312 51.898438 59.558594 C 52.160156 59.300781 52.460938 59.179688 52.78125 59.179688 C 53.121094 59.179688 53.359375 59.320312 53.558594 59.578125 C 53.738281 59.839844 53.859375 60.28125 53.941406 60.898438 C 54 61.519531 54.039062 62.398438 54.039062 63.558594 Z M 42.878906 57.140625 L 42.878906 68.761719 C 42.738281 69.019531 42.539062 69.238281 42.28125 69.421875 C 42.019531 69.601562 41.738281 69.679688 41.460938 69.679688 C 41.121094 69.679688 40.878906 69.539062 40.738281 69.261719 C 40.601562 68.980469 40.539062 68.519531 40.539062 67.878906 L 40.539062 57.140625 L 37.238281 57.140625 L 37.238281 68.058594 C 37.238281 69.421875 37.460938 70.398438 37.921875 71.039062 C 38.378906 71.679688 39.101562 72 40.078125 72 C 41.480469 72 42.519531 71.320312 43.21875 69.960938 L 43.300781 69.960938 L 43.578125 71.761719 L 46.160156 71.761719 L 46.160156 57.140625 Z M 28.460938 51.738281 L 28.460938 54.378906 L 31.71875 54.378906 L 31.71875 71.761719 L 34.941406 71.761719 L 34.941406 54.378906 L 38.21875 54.378906 L 38.21875 51.738281 Z M 67.539062 65.539062 L 67.539062 63.039062 C 67.539062 61.5 67.421875 60.28125 67.160156 59.398438 C 66.921875 58.539062 66.5 57.878906 65.898438 57.480469 C 65.28125 57.058594 64.421875 56.859375 63.28125 56.859375 C 61.660156 56.859375 60.5 57.359375 59.820312 58.378906 C 59.140625 59.378906 58.800781 60.980469 58.800781 63.179688 L 58.800781 65.738281 C 58.800781 67.859375 59.140625 69.441406 59.78125 70.460938 C 60.441406 71.480469 61.578125 71.980469 63.199219 71.980469 C 64.558594 71.980469 65.601562 71.660156 66.339844 70.980469 C 67.078125 70.320312 67.441406 69.300781 67.441406 67.960938 C 67.441406 67.71875 67.441406 67.558594 67.421875 67.421875 L 64.578125 67.261719 C 64.578125 68.140625 64.460938 68.78125 64.28125 69.160156 C 64.101562 69.539062 63.761719 69.738281 63.28125 69.738281 C 62.921875 69.738281 62.640625 69.640625 62.460938 69.421875 C 62.28125 69.199219 62.179688 68.859375 62.121094 68.398438 C 62.058594 67.921875 62.039062 67.21875 62.039062 66.28125 L 62.039062 65.539062 Z M 62.019531 63.578125 L 62.019531 62.539062 C 62.019531 61.578125 62.058594 60.878906 62.121094 60.398438 C 62.160156 59.941406 62.28125 59.601562 62.441406 59.398438 C 62.621094 59.179688 62.878906 59.078125 63.21875 59.078125 C 63.578125 59.078125 63.820312 59.179688 64 59.378906 C 64.160156 59.578125 64.28125 59.921875 64.339844 60.398438 C 64.398438 60.878906 64.441406 61.601562 64.441406 62.539062 L 64.441406 63.578125 Z M 62.019531 63.578125 "/>
</g>
</svg>
