<?xml version="1.0" encoding="UTF-8"?>
<svg xmlns="http://www.w3.org/2000/svg" viewBox="0 0 96 96" width="96px" height="96px">
<g id="surface1231213">
<path style=" stroke:none;fill-rule:nonzero;fill:rgb(90.196079%,94.509804%,97.647059%);fill-opacity:1;" d="M 76.308594 19.710938 C 67.980469 11.378906 56.621094 7.175781 44.691406 8.136719 C 28.65625 9.425781 14.601562 20.574219 9.894531 35.960938 C 6.535156 46.953125 7.949219 58.429688 13.421875 67.90625 L 8.234375 85.121094 C 7.738281 86.773438 9.246094 88.328125 10.914062 87.882812 L 28.933594 83.054688 C 34.769531 86.238281 41.335938 87.914062 48.023438 87.921875 L 48.039062 87.921875 C 64.820312 87.921875 80.324219 77.65625 85.6875 61.757812 C 90.910156 46.253906 87.046875 30.464844 76.308594 19.710938 Z M 67.59375 62.214844 C 66.761719 64.546875 62.683594 66.796875 60.851562 66.960938 C 59.019531 67.128906 57.304688 67.789062 48.871094 64.464844 C 38.722656 60.464844 32.316406 50.058594 31.820312 49.394531 C 31.320312 48.726562 27.742188 43.984375 27.742188 39.070312 C 27.742188 34.160156 30.324219 31.742188 31.238281 30.746094 C 32.15625 29.746094 33.234375 29.5 33.902344 29.5 C 34.566406 29.5 35.234375 29.5 35.816406 29.523438 C 36.527344 29.550781 37.316406 29.589844 38.0625 31.246094 C 38.953125 33.222656 40.890625 38.160156 41.140625 38.660156 C 41.386719 39.160156 41.554688 39.742188 41.222656 40.40625 C 40.890625 41.070312 40.722656 41.488281 40.226562 42.070312 C 39.726562 42.65625 39.179688 43.371094 38.730469 43.820312 C 38.230469 44.316406 37.710938 44.859375 38.292969 45.855469 C 38.875 46.855469 40.875 50.125 43.84375 52.769531 C 47.660156 56.167969 50.871094 57.21875 51.871094 57.722656 C 52.871094 58.222656 53.453125 58.140625 54.035156 57.472656 C 54.621094 56.808594 56.53125 54.558594 57.195312 53.558594 C 57.859375 52.558594 58.527344 52.726562 59.445312 53.058594 C 60.359375 53.390625 65.269531 55.808594 66.265625 56.308594 C 67.265625 56.808594 67.929688 57.054688 68.175781 57.472656 C 68.425781 57.882812 68.425781 59.882812 67.59375 62.214844 Z M 67.59375 62.214844 "/>
</g>
</svg>
