<?xml version="1.0" encoding="UTF-8"?>
<svg xmlns="http://www.w3.org/2000/svg" viewBox="0 0 48 48" width="48px" height="48px">
<g id="surface1212758">
<path style=" stroke:none;fill-rule:nonzero;fill:rgb(90.196079%,94.509804%,97.647059%);fill-opacity:1;" d="M 23.679688 13.800781 C 23.570312 13.511719 23.378906 13.371094 23.101562 13.371094 C 22.839844 13.371094 22.648438 13.511719 22.550781 13.800781 C 22.441406 14.089844 22.378906 14.539062 22.378906 15.160156 L 22.378906 17.859375 C 22.378906 18.511719 22.429688 18.96875 22.539062 19.25 C 22.640625 19.53125 22.828125 19.671875 23.109375 19.671875 C 23.378906 19.671875 23.570312 19.53125 23.679688 19.25 C 23.789062 18.96875 23.839844 18.5 23.839844 17.859375 L 23.839844 15.160156 C 23.839844 14.539062 23.789062 14.089844 23.679688 13.800781 Z M 23.679688 13.800781 C 23.570312 13.511719 23.378906 13.371094 23.101562 13.371094 C 22.839844 13.371094 22.648438 13.511719 22.550781 13.800781 C 22.441406 14.089844 22.378906 14.539062 22.378906 15.160156 L 22.378906 17.859375 C 22.378906 18.511719 22.429688 18.96875 22.539062 19.25 C 22.640625 19.53125 22.828125 19.671875 23.109375 19.671875 C 23.378906 19.671875 23.570312 19.53125 23.679688 19.25 C 23.789062 18.96875 23.839844 18.5 23.839844 17.859375 L 23.839844 15.160156 C 23.839844 14.539062 23.789062 14.089844 23.679688 13.800781 Z M 14.230469 25.871094 L 14.230469 27.191406 L 15.859375 27.191406 L 15.859375 35.878906 L 17.46875 35.878906 L 17.46875 27.191406 L 19.109375 27.191406 L 19.109375 25.871094 Z M 21.441406 28.570312 L 21.441406 34.378906 C 21.371094 34.511719 21.269531 34.621094 21.140625 34.710938 C 21.011719 34.800781 20.871094 34.839844 20.730469 34.839844 C 20.558594 34.839844 20.441406 34.769531 20.371094 34.628906 C 20.300781 34.488281 20.269531 34.261719 20.269531 33.941406 L 20.269531 28.570312 L 18.621094 28.570312 L 18.621094 34.03125 C 18.621094 34.710938 18.730469 35.199219 18.960938 35.519531 C 19.191406 35.839844 19.550781 36 20.039062 36 C 20.738281 36 21.261719 35.660156 21.609375 34.980469 L 21.648438 34.980469 L 21.789062 35.878906 L 23.078125 35.878906 L 23.078125 28.570312 Z M 23.679688 13.800781 C 23.570312 13.511719 23.378906 13.371094 23.101562 13.371094 C 22.839844 13.371094 22.648438 13.511719 22.550781 13.800781 C 22.441406 14.089844 22.378906 14.539062 22.378906 15.160156 L 22.378906 17.859375 C 22.378906 18.511719 22.429688 18.96875 22.539062 19.25 C 22.640625 19.53125 22.828125 19.671875 23.109375 19.671875 C 23.378906 19.671875 23.570312 19.53125 23.679688 19.25 C 23.789062 18.96875 23.839844 18.5 23.839844 17.859375 L 23.839844 15.160156 C 23.839844 14.539062 23.789062 14.089844 23.679688 13.800781 Z M 28.53125 29.738281 C 28.429688 29.28125 28.269531 28.941406 28.050781 28.730469 C 27.828125 28.53125 27.519531 28.421875 27.128906 28.421875 C 26.820312 28.421875 26.539062 28.511719 26.28125 28.679688 C 26.019531 28.851562 25.820312 29.070312 25.671875 29.351562 L 25.660156 29.351562 L 25.660156 25.5 L 24.070312 25.5 L 24.070312 35.878906 L 25.429688 35.878906 L 25.601562 35.191406 L 25.640625 35.191406 C 25.769531 35.441406 25.949219 35.628906 26.210938 35.769531 C 26.46875 35.921875 26.75 35.988281 27.058594 35.988281 C 27.609375 35.988281 28.019531 35.730469 28.289062 35.21875 C 28.550781 34.710938 28.679688 33.898438 28.679688 32.808594 L 28.679688 31.660156 C 28.679688 30.839844 28.628906 30.199219 28.53125 29.738281 Z M 27.019531 32.71875 C 27.019531 33.25 27 33.671875 26.949219 33.96875 C 26.910156 34.28125 26.839844 34.488281 26.730469 34.621094 C 26.628906 34.738281 26.488281 34.808594 26.320312 34.808594 C 26.179688 34.808594 26.058594 34.769531 25.941406 34.710938 C 25.828125 34.648438 25.730469 34.550781 25.660156 34.421875 L 25.660156 30.269531 C 25.71875 30.070312 25.808594 29.910156 25.949219 29.78125 C 26.078125 29.648438 26.230469 29.589844 26.390625 29.589844 C 26.558594 29.589844 26.679688 29.660156 26.78125 29.789062 C 26.871094 29.921875 26.929688 30.140625 26.96875 30.449219 C 27 30.761719 27.019531 31.199219 27.019531 31.78125 Z M 33.769531 32.769531 L 33.769531 31.519531 C 33.769531 30.75 33.710938 30.140625 33.578125 29.699219 C 33.460938 29.269531 33.25 28.941406 32.949219 28.738281 C 32.640625 28.53125 32.210938 28.429688 31.640625 28.429688 C 30.828125 28.429688 30.25 28.679688 29.910156 29.191406 C 29.570312 29.691406 29.398438 30.488281 29.398438 31.589844 L 29.398438 32.871094 C 29.398438 33.929688 29.570312 34.71875 29.890625 35.230469 C 30.21875 35.738281 30.789062 35.988281 31.601562 35.988281 C 32.28125 35.988281 32.800781 35.828125 33.171875 35.488281 C 33.539062 35.160156 33.71875 34.648438 33.71875 33.980469 C 33.71875 33.859375 33.71875 33.78125 33.710938 33.710938 L 32.289062 33.628906 C 32.289062 34.070312 32.230469 34.390625 32.140625 34.578125 C 32.050781 34.769531 31.878906 34.871094 31.640625 34.871094 C 31.460938 34.871094 31.320312 34.820312 31.230469 34.710938 C 31.140625 34.601562 31.089844 34.429688 31.058594 34.199219 C 31.03125 33.960938 31.019531 33.609375 31.019531 33.140625 L 31.019531 32.769531 Z M 31.011719 31.789062 L 31.011719 31.269531 C 31.011719 30.789062 31.03125 30.441406 31.058594 30.199219 C 31.078125 29.96875 31.140625 29.800781 31.21875 29.699219 C 31.308594 29.589844 31.441406 29.539062 31.609375 29.539062 C 31.789062 29.539062 31.910156 29.589844 32 29.691406 C 32.078125 29.789062 32.140625 29.960938 32.171875 30.199219 C 32.199219 30.441406 32.21875 30.800781 32.21875 31.269531 L 32.21875 31.789062 Z M 33.769531 32.769531 L 33.769531 31.519531 C 33.769531 30.75 33.710938 30.140625 33.578125 29.699219 C 33.460938 29.269531 33.25 28.941406 32.949219 28.738281 C 32.640625 28.53125 32.210938 28.429688 31.640625 28.429688 C 30.828125 28.429688 30.25 28.679688 29.910156 29.191406 C 29.570312 29.691406 29.398438 30.488281 29.398438 31.589844 L 29.398438 32.871094 C 29.398438 33.929688 29.570312 34.71875 29.890625 35.230469 C 30.21875 35.738281 30.789062 35.988281 31.601562 35.988281 C 32.28125 35.988281 32.800781 35.828125 33.171875 35.488281 C 33.539062 35.160156 33.71875 34.648438 33.71875 33.980469 C 33.71875 33.859375 33.71875 33.78125 33.710938 33.710938 L 32.289062 33.628906 C 32.289062 34.070312 32.230469 34.390625 32.140625 34.578125 C 32.050781 34.769531 31.878906 34.871094 31.640625 34.871094 C 31.460938 34.871094 31.320312 34.820312 31.230469 34.710938 C 31.140625 34.601562 31.089844 34.429688 31.058594 34.199219 C 31.03125 33.960938 31.019531 33.609375 31.019531 33.140625 L 31.019531 32.769531 Z M 31.011719 31.789062 L 31.011719 31.269531 C 31.011719 30.789062 31.03125 30.441406 31.058594 30.199219 C 31.078125 29.96875 31.140625 29.800781 31.21875 29.699219 C 31.308594 29.589844 31.441406 29.539062 31.609375 29.539062 C 31.789062 29.539062 31.910156 29.589844 32 29.691406 C 32.078125 29.789062 32.140625 29.960938 32.171875 30.199219 C 32.199219 30.441406 32.21875 30.800781 32.21875 31.269531 L 32.21875 31.789062 Z M 28.050781 28.730469 C 27.828125 28.53125 27.519531 28.421875 27.128906 28.421875 C 26.820312 28.421875 26.539062 28.511719 26.28125 28.679688 C 26.019531 28.851562 25.820312 29.070312 25.671875 29.351562 L 25.660156 29.351562 L 25.660156 25.5 L 24.070312 25.5 L 24.070312 35.878906 L 25.429688 35.878906 L 25.601562 35.191406 L 25.640625 35.191406 C 25.769531 35.441406 25.949219 35.628906 26.210938 35.769531 C 26.46875 35.921875 26.75 35.988281 27.058594 35.988281 C 27.609375 35.988281 28.019531 35.730469 28.289062 35.21875 C 28.550781 34.710938 28.679688 33.898438 28.679688 32.808594 L 28.679688 31.660156 C 28.679688 30.839844 28.628906 30.199219 28.53125 29.738281 C 28.429688 29.28125 28.269531 28.941406 28.050781 28.730469 Z M 27.019531 32.71875 C 27.019531 33.25 27 33.671875 26.949219 33.96875 C 26.910156 34.28125 26.839844 34.488281 26.730469 34.621094 C 26.628906 34.738281 26.488281 34.808594 26.320312 34.808594 C 26.179688 34.808594 26.058594 34.769531 25.941406 34.710938 C 25.828125 34.648438 25.730469 34.550781 25.660156 34.421875 L 25.660156 30.269531 C 25.71875 30.070312 25.808594 29.910156 25.949219 29.78125 C 26.078125 29.648438 26.230469 29.589844 26.390625 29.589844 C 26.558594 29.589844 26.679688 29.660156 26.78125 29.789062 C 26.871094 29.921875 26.929688 30.140625 26.96875 30.449219 C 27 30.761719 27.019531 31.199219 27.019531 31.78125 Z M 21.441406 34.378906 C 21.371094 34.511719 21.269531 34.621094 21.140625 34.710938 C 21.011719 34.800781 20.871094 34.839844 20.730469 34.839844 C 20.558594 34.839844 20.441406 34.769531 20.371094 34.628906 C 20.300781 34.488281 20.269531 34.261719 20.269531 33.941406 L 20.269531 28.570312 L 18.621094 28.570312 L 18.621094 34.03125 C 18.621094 34.710938 18.730469 35.199219 18.960938 35.519531 C 19.191406 35.839844 19.550781 36 20.039062 36 C 20.738281 36 21.261719 35.660156 21.609375 34.980469 L 21.648438 34.980469 L 21.789062 35.878906 L 23.078125 35.878906 L 23.078125 28.570312 L 21.441406 28.570312 Z M 19.109375 25.871094 L 14.230469 25.871094 L 14.230469 27.191406 L 15.859375 27.191406 L 15.859375 35.878906 L 17.46875 35.878906 L 17.46875 27.191406 L 19.109375 27.191406 Z M 23.679688 13.800781 C 23.570312 13.511719 23.378906 13.371094 23.101562 13.371094 C 22.839844 13.371094 22.648438 13.511719 22.550781 13.800781 C 22.441406 14.089844 22.378906 14.539062 22.378906 15.160156 L 22.378906 17.859375 C 22.378906 18.511719 22.429688 18.96875 22.539062 19.25 C 22.640625 19.53125 22.828125 19.671875 23.109375 19.671875 C 23.378906 19.671875 23.570312 19.53125 23.679688 19.25 C 23.789062 18.96875 23.839844 18.5 23.839844 17.859375 L 23.839844 15.160156 C 23.839844 14.539062 23.789062 14.089844 23.679688 13.800781 Z M 36.5 6 L 11.5 6 C 8.46875 6 6 8.46875 6 11.5 L 6 36.5 C 6 39.53125 8.46875 42 11.5 42 L 36.5 42 C 39.53125 42 42 39.53125 42 36.5 L 42 11.5 C 42 8.46875 39.53125 6 36.5 6 Z M 26.820312 12.199219 L 28.769531 12.199219 L 28.769531 18.558594 C 28.769531 18.941406 28.808594 19.21875 28.898438 19.378906 C 28.980469 19.550781 29.121094 19.628906 29.320312 19.628906 C 29.488281 19.628906 29.648438 19.578125 29.808594 19.480469 C 29.960938 19.371094 30.078125 19.238281 30.148438 19.078125 L 30.148438 12.199219 L 32.101562 12.199219 L 32.101562 20.859375 L 30.578125 20.859375 L 30.410156 19.800781 L 30.371094 19.800781 C 29.949219 20.601562 29.328125 21 28.5 21 C 27.929688 21 27.5 20.808594 27.230469 20.441406 C 26.949219 20.058594 26.820312 19.46875 26.820312 18.671875 Z M 21.570312 12.410156 C 21.96875 12.148438 22.488281 12.03125 23.148438 12.03125 C 23.789062 12.03125 24.300781 12.160156 24.691406 12.421875 C 25.070312 12.691406 25.359375 13.101562 25.53125 13.660156 C 25.710938 14.21875 25.800781 14.96875 25.800781 15.898438 L 25.800781 17.160156 C 25.800781 18.078125 25.710938 18.820312 25.539062 19.378906 C 25.371094 19.941406 25.078125 20.351562 24.691406 20.609375 C 24.300781 20.871094 23.769531 21 23.101562 21 C 22.421875 21 21.878906 20.871094 21.488281 20.601562 C 21.089844 20.339844 20.820312 19.929688 20.648438 19.371094 C 20.488281 18.820312 20.398438 18.078125 20.398438 17.148438 L 20.398438 15.898438 C 20.398438 14.960938 20.5 14.210938 20.691406 13.648438 C 20.871094 13.089844 21.171875 12.671875 21.570312 12.410156 Z M 16.460938 9 L 17.230469 12.628906 C 17.429688 13.53125 17.578125 14.289062 17.671875 14.921875 L 17.730469 14.921875 C 17.789062 14.46875 17.941406 13.710938 18.171875 12.648438 L 18.96875 9 L 20.910156 9 L 18.660156 17.011719 L 18.660156 20.859375 L 16.738281 20.859375 L 16.738281 17.011719 L 14.519531 9 Z M 37.949219 36 C 37.949219 37.648438 36.601562 39 34.949219 39 L 13.050781 39 C 11.398438 39 10.050781 37.648438 10.050781 36 L 10.050781 25.75 C 10.050781 24.101562 11.398438 22.75 13.050781 22.75 L 34.949219 22.75 C 36.601562 22.75 37.949219 24.101562 37.949219 25.75 Z M 32.949219 28.738281 C 32.640625 28.53125 32.210938 28.429688 31.640625 28.429688 C 30.828125 28.429688 30.25 28.679688 29.910156 29.191406 C 29.570312 29.691406 29.398438 30.488281 29.398438 31.589844 L 29.398438 32.871094 C 29.398438 33.929688 29.570312 34.71875 29.890625 35.230469 C 30.21875 35.738281 30.789062 35.988281 31.601562 35.988281 C 32.28125 35.988281 32.800781 35.828125 33.171875 35.488281 C 33.539062 35.160156 33.71875 34.648438 33.71875 33.980469 C 33.71875 33.859375 33.71875 33.78125 33.710938 33.710938 L 32.289062 33.628906 C 32.289062 34.070312 32.230469 34.390625 32.140625 34.578125 C 32.050781 34.769531 31.878906 34.871094 31.640625 34.871094 C 31.460938 34.871094 31.320312 34.820312 31.230469 34.710938 C 31.140625 34.601562 31.089844 34.429688 31.058594 34.199219 C 31.03125 33.960938 31.019531 33.609375 31.019531 33.140625 L 31.019531 32.769531 L 33.769531 32.769531 L 33.769531 31.519531 C 33.769531 30.75 33.710938 30.140625 33.578125 29.699219 C 33.460938 29.269531 33.25 28.941406 32.949219 28.738281 Z M 32.21875 31.789062 L 31.011719 31.789062 L 31.011719 31.269531 C 31.011719 30.789062 31.03125 30.441406 31.058594 30.199219 C 31.078125 29.96875 31.140625 29.800781 31.21875 29.699219 C 31.308594 29.589844 31.441406 29.539062 31.609375 29.539062 C 31.789062 29.539062 31.910156 29.589844 32 29.691406 C 32.078125 29.789062 32.140625 29.960938 32.171875 30.199219 C 32.199219 30.441406 32.21875 30.800781 32.21875 31.269531 Z M 28.050781 28.730469 C 27.828125 28.53125 27.519531 28.421875 27.128906 28.421875 C 26.820312 28.421875 26.539062 28.511719 26.28125 28.679688 C 26.019531 28.851562 25.820312 29.070312 25.671875 29.351562 L 25.660156 29.351562 L 25.660156 25.5 L 24.070312 25.5 L 24.070312 35.878906 L 25.429688 35.878906 L 25.601562 35.191406 L 25.640625 35.191406 C 25.769531 35.441406 25.949219 35.628906 26.210938 35.769531 C 26.46875 35.921875 26.75 35.988281 27.058594 35.988281 C 27.609375 35.988281 28.019531 35.730469 28.289062 35.21875 C 28.550781 34.710938 28.679688 33.898438 28.679688 32.808594 L 28.679688 31.660156 C 28.679688 30.839844 28.628906 30.199219 28.53125 29.738281 C 28.429688 29.28125 28.269531 28.941406 28.050781 28.730469 Z M 27.019531 32.71875 C 27.019531 33.25 27 33.671875 26.949219 33.96875 C 26.910156 34.28125 26.839844 34.488281 26.730469 34.621094 C 26.628906 34.738281 26.488281 34.808594 26.320312 34.808594 C 26.179688 34.808594 26.058594 34.769531 25.941406 34.710938 C 25.828125 34.648438 25.730469 34.550781 25.660156 34.421875 L 25.660156 30.269531 C 25.71875 30.070312 25.808594 29.910156 25.949219 29.78125 C 26.078125 29.648438 26.230469 29.589844 26.390625 29.589844 C 26.558594 29.589844 26.679688 29.660156 26.78125 29.789062 C 26.871094 29.921875 26.929688 30.140625 26.96875 30.449219 C 27 30.761719 27.019531 31.199219 27.019531 31.78125 Z M 23.109375 19.671875 C 23.378906 19.671875 23.570312 19.53125 23.679688 19.25 C 23.789062 18.96875 23.839844 18.5 23.839844 17.859375 L 23.839844 15.160156 C 23.839844 14.539062 23.789062 14.089844 23.679688 13.800781 C 23.570312 13.511719 23.378906 13.371094 23.101562 13.371094 C 22.839844 13.371094 22.648438 13.511719 22.550781 13.800781 C 22.441406 14.089844 22.378906 14.539062 22.378906 15.160156 L 22.378906 17.859375 C 22.378906 18.511719 22.429688 18.96875 22.539062 19.25 C 22.640625 19.53125 22.828125 19.671875 23.109375 19.671875 Z M 21.441406 34.378906 C 21.371094 34.511719 21.269531 34.621094 21.140625 34.710938 C 21.011719 34.800781 20.871094 34.839844 20.730469 34.839844 C 20.558594 34.839844 20.441406 34.769531 20.371094 34.628906 C 20.300781 34.488281 20.269531 34.261719 20.269531 33.941406 L 20.269531 28.570312 L 18.621094 28.570312 L 18.621094 34.03125 C 18.621094 34.710938 18.730469 35.199219 18.960938 35.519531 C 19.191406 35.839844 19.550781 36 20.039062 36 C 20.738281 36 21.261719 35.660156 21.609375 34.980469 L 21.648438 34.980469 L 21.789062 35.878906 L 23.078125 35.878906 L 23.078125 28.570312 L 21.441406 28.570312 Z M 19.109375 25.871094 L 14.230469 25.871094 L 14.230469 27.191406 L 15.859375 27.191406 L 15.859375 35.878906 L 17.46875 35.878906 L 17.46875 27.191406 L 19.109375 27.191406 Z M 23.679688 13.800781 C 23.570312 13.511719 23.378906 13.371094 23.101562 13.371094 C 22.839844 13.371094 22.648438 13.511719 22.550781 13.800781 C 22.441406 14.089844 22.378906 14.539062 22.378906 15.160156 L 22.378906 17.859375 C 22.378906 18.511719 22.429688 18.96875 22.539062 19.25 C 22.640625 19.53125 22.828125 19.671875 23.109375 19.671875 C 23.378906 19.671875 23.570312 19.53125 23.679688 19.25 C 23.789062 18.96875 23.839844 18.5 23.839844 17.859375 L 23.839844 15.160156 C 23.839844 14.539062 23.789062 14.089844 23.679688 13.800781 Z M 14.230469 25.871094 L 14.230469 27.191406 L 15.859375 27.191406 L 15.859375 35.878906 L 17.46875 35.878906 L 17.46875 27.191406 L 19.109375 27.191406 L 19.109375 25.871094 Z M 21.441406 28.570312 L 21.441406 34.378906 C 21.371094 34.511719 21.269531 34.621094 21.140625 34.710938 C 21.011719 34.800781 20.871094 34.839844 20.730469 34.839844 C 20.558594 34.839844 20.441406 34.769531 20.371094 34.628906 C 20.300781 34.488281 20.269531 34.261719 20.269531 33.941406 L 20.269531 28.570312 L 18.621094 28.570312 L 18.621094 34.03125 C 18.621094 34.710938 18.730469 35.199219 18.960938 35.519531 C 19.191406 35.839844 19.550781 36 20.039062 36 C 20.738281 36 21.261719 35.660156 21.609375 34.980469 L 21.648438 34.980469 L 21.789062 35.878906 L 23.078125 35.878906 L 23.078125 28.570312 Z M 28.53125 29.738281 C 28.429688 29.28125 28.269531 28.941406 28.050781 28.730469 C 27.828125 28.53125 27.519531 28.421875 27.128906 28.421875 C 26.820312 28.421875 26.539062 28.511719 26.28125 28.679688 C 26.019531 28.851562 25.820312 29.070312 25.671875 29.351562 L 25.660156 29.351562 L 25.660156 25.5 L 24.070312 25.5 L 24.070312 35.878906 L 25.429688 35.878906 L 25.601562 35.191406 L 25.640625 35.191406 C 25.769531 35.441406 25.949219 35.628906 26.210938 35.769531 C 26.46875 35.921875 26.75 35.988281 27.058594 35.988281 C 27.609375 35.988281 28.019531 35.730469 28.289062 35.21875 C 28.550781 34.710938 28.679688 33.898438 28.679688 32.808594 L 28.679688 31.660156 C 28.679688 30.839844 28.628906 30.199219 28.53125 29.738281 Z M 27.019531 32.71875 C 27.019531 33.25 27 33.671875 26.949219 33.96875 C 26.910156 34.28125 26.839844 34.488281 26.730469 34.621094 C 26.628906 34.738281 26.488281 34.808594 26.320312 34.808594 C 26.179688 34.808594 26.058594 34.769531 25.941406 34.710938 C 25.828125 34.648438 25.730469 34.550781 25.660156 34.421875 L 25.660156 30.269531 C 25.71875 30.070312 25.808594 29.910156 25.949219 29.78125 C 26.078125 29.648438 26.230469 29.589844 26.390625 29.589844 C 26.558594 29.589844 26.679688 29.660156 26.78125 29.789062 C 26.871094 29.921875 26.929688 30.140625 26.96875 30.449219 C 27 30.761719 27.019531 31.199219 27.019531 31.78125 Z M 33.769531 32.769531 L 33.769531 31.519531 C 33.769531 30.75 33.710938 30.140625 33.578125 29.699219 C 33.460938 29.269531 33.25 28.941406 32.949219 28.738281 C 32.640625 28.53125 32.210938 28.429688 31.640625 28.429688 C 30.828125 28.429688 30.25 28.679688 29.910156 29.191406 C 29.570312 29.691406 29.398438 30.488281 29.398438 31.589844 L 29.398438 32.871094 C 29.398438 33.929688 29.570312 34.71875 29.890625 35.230469 C 30.21875 35.738281 30.789062 35.988281 31.601562 35.988281 C 32.28125 35.988281 32.800781 35.828125 33.171875 35.488281 C 33.539062 35.160156 33.71875 34.648438 33.71875 33.980469 C 33.71875 33.859375 33.71875 33.78125 33.710938 33.710938 L 32.289062 33.628906 C 32.289062 34.070312 32.230469 34.390625 32.140625 34.578125 C 32.050781 34.769531 31.878906 34.871094 31.640625 34.871094 C 31.460938 34.871094 31.320312 34.820312 31.230469 34.710938 C 31.140625 34.601562 31.089844 34.429688 31.058594 34.199219 C 31.03125 33.960938 31.019531 33.609375 31.019531 33.140625 L 31.019531 32.769531 Z M 31.011719 31.789062 L 31.011719 31.269531 C 31.011719 30.789062 31.03125 30.441406 31.058594 30.199219 C 31.078125 29.96875 31.140625 29.800781 31.21875 29.699219 C 31.308594 29.589844 31.441406 29.539062 31.609375 29.539062 C 31.789062 29.539062 31.910156 29.589844 32 29.691406 C 32.078125 29.789062 32.140625 29.960938 32.171875 30.199219 C 32.199219 30.441406 32.21875 30.800781 32.21875 31.269531 L 32.21875 31.789062 Z M 33.769531 32.769531 L 33.769531 31.519531 C 33.769531 30.75 33.710938 30.140625 33.578125 29.699219 C 33.460938 29.269531 33.25 28.941406 32.949219 28.738281 C 32.640625 28.53125 32.210938 28.429688 31.640625 28.429688 C 30.828125 28.429688 30.25 28.679688 29.910156 29.191406 C 29.570312 29.691406 29.398438 30.488281 29.398438 31.589844 L 29.398438 32.871094 C 29.398438 33.929688 29.570312 34.71875 29.890625 35.230469 C 30.21875 35.738281 30.789062 35.988281 31.601562 35.988281 C 32.28125 35.988281 32.800781 35.828125 33.171875 35.488281 C 33.539062 35.160156 33.71875 34.648438 33.71875 33.980469 C 33.71875 33.859375 33.71875 33.78125 33.710938 33.710938 L 32.289062 33.628906 C 32.289062 34.070312 32.230469 34.390625 32.140625 34.578125 C 32.050781 34.769531 31.878906 34.871094 31.640625 34.871094 C 31.460938 34.871094 31.320312 34.820312 31.230469 34.710938 C 31.140625 34.601562 31.089844 34.429688 31.058594 34.199219 C 31.03125 33.960938 31.019531 33.609375 31.019531 33.140625 L 31.019531 32.769531 Z M 31.011719 31.789062 L 31.011719 31.269531 C 31.011719 30.789062 31.03125 30.441406 31.058594 30.199219 C 31.078125 29.96875 31.140625 29.800781 31.21875 29.699219 C 31.308594 29.589844 31.441406 29.539062 31.609375 29.539062 C 31.789062 29.539062 31.910156 29.589844 32 29.691406 C 32.078125 29.789062 32.140625 29.960938 32.171875 30.199219 C 32.199219 30.441406 32.21875 30.800781 32.21875 31.269531 L 32.21875 31.789062 Z M 28.53125 29.738281 C 28.429688 29.28125 28.269531 28.941406 28.050781 28.730469 C 27.828125 28.53125 27.519531 28.421875 27.128906 28.421875 C 26.820312 28.421875 26.539062 28.511719 26.28125 28.679688 C 26.019531 28.851562 25.820312 29.070312 25.671875 29.351562 L 25.660156 29.351562 L 25.660156 25.5 L 24.070312 25.5 L 24.070312 35.878906 L 25.429688 35.878906 L 25.601562 35.191406 L 25.640625 35.191406 C 25.769531 35.441406 25.949219 35.628906 26.210938 35.769531 C 26.46875 35.921875 26.75 35.988281 27.058594 35.988281 C 27.609375 35.988281 28.019531 35.730469 28.289062 35.21875 C 28.550781 34.710938 28.679688 33.898438 28.679688 32.808594 L 28.679688 31.660156 C 28.679688 30.839844 28.628906 30.199219 28.53125 29.738281 Z M 27.019531 32.71875 C 27.019531 33.25 27 33.671875 26.949219 33.96875 C 26.910156 34.28125 26.839844 34.488281 26.730469 34.621094 C 26.628906 34.738281 26.488281 34.808594 26.320312 34.808594 C 26.179688 34.808594 26.058594 34.769531 25.941406 34.710938 C 25.828125 34.648438 25.730469 34.550781 25.660156 34.421875 L 25.660156 30.269531 C 25.71875 30.070312 25.808594 29.910156 25.949219 29.78125 C 26.078125 29.648438 26.230469 29.589844 26.390625 29.589844 C 26.558594 29.589844 26.679688 29.660156 26.78125 29.789062 C 26.871094 29.921875 26.929688 30.140625 26.96875 30.449219 C 27 30.761719 27.019531 31.199219 27.019531 31.78125 Z M 23.679688 13.800781 C 23.570312 13.511719 23.378906 13.371094 23.101562 13.371094 C 22.839844 13.371094 22.648438 13.511719 22.550781 13.800781 C 22.441406 14.089844 22.378906 14.539062 22.378906 15.160156 L 22.378906 17.859375 C 22.378906 18.511719 22.429688 18.96875 22.539062 19.25 C 22.640625 19.53125 22.828125 19.671875 23.109375 19.671875 C 23.378906 19.671875 23.570312 19.53125 23.679688 19.25 C 23.789062 18.96875 23.839844 18.5 23.839844 17.859375 L 23.839844 15.160156 C 23.839844 14.539062 23.789062 14.089844 23.679688 13.800781 Z M 21.441406 28.570312 L 21.441406 34.378906 C 21.371094 34.511719 21.269531 34.621094 21.140625 34.710938 C 21.011719 34.800781 20.871094 34.839844 20.730469 34.839844 C 20.558594 34.839844 20.441406 34.769531 20.371094 34.628906 C 20.300781 34.488281 20.269531 34.261719 20.269531 33.941406 L 20.269531 28.570312 L 18.621094 28.570312 L 18.621094 34.03125 C 18.621094 34.710938 18.730469 35.199219 18.960938 35.519531 C 19.191406 35.839844 19.550781 36 20.039062 36 C 20.738281 36 21.261719 35.660156 21.609375 34.980469 L 21.648438 34.980469 L 21.789062 35.878906 L 23.078125 35.878906 L 23.078125 28.570312 Z M 14.230469 25.871094 L 14.230469 27.191406 L 15.859375 27.191406 L 15.859375 35.878906 L 17.46875 35.878906 L 17.46875 27.191406 L 19.109375 27.191406 L 19.109375 25.871094 Z M 23.679688 13.800781 C 23.570312 13.511719 23.378906 13.371094 23.101562 13.371094 C 22.839844 13.371094 22.648438 13.511719 22.550781 13.800781 C 22.441406 14.089844 22.378906 14.539062 22.378906 15.160156 L 22.378906 17.859375 C 22.378906 18.511719 22.429688 18.96875 22.539062 19.25 C 22.640625 19.53125 22.828125 19.671875 23.109375 19.671875 C 23.378906 19.671875 23.570312 19.53125 23.679688 19.25 C 23.789062 18.96875 23.839844 18.5 23.839844 17.859375 L 23.839844 15.160156 C 23.839844 14.539062 23.789062 14.089844 23.679688 13.800781 Z M 23.679688 13.800781 C 23.570312 13.511719 23.378906 13.371094 23.101562 13.371094 C 22.839844 13.371094 22.648438 13.511719 22.550781 13.800781 C 22.441406 14.089844 22.378906 14.539062 22.378906 15.160156 L 22.378906 17.859375 C 22.378906 18.511719 22.429688 18.96875 22.539062 19.25 C 22.640625 19.53125 22.828125 19.671875 23.109375 19.671875 C 23.378906 19.671875 23.570312 19.53125 23.679688 19.25 C 23.789062 18.96875 23.839844 18.5 23.839844 17.859375 L 23.839844 15.160156 C 23.839844 14.539062 23.789062 14.089844 23.679688 13.800781 Z M 23.679688 13.800781 C 23.570312 13.511719 23.378906 13.371094 23.101562 13.371094 C 22.839844 13.371094 22.648438 13.511719 22.550781 13.800781 C 22.441406 14.089844 22.378906 14.539062 22.378906 15.160156 L 22.378906 17.859375 C 22.378906 18.511719 22.429688 18.96875 22.539062 19.25 C 22.640625 19.53125 22.828125 19.671875 23.109375 19.671875 C 23.378906 19.671875 23.570312 19.53125 23.679688 19.25 C 23.789062 18.96875 23.839844 18.5 23.839844 17.859375 L 23.839844 15.160156 C 23.839844 14.539062 23.789062 14.089844 23.679688 13.800781 Z M 23.679688 13.800781 C 23.570312 13.511719 23.378906 13.371094 23.101562 13.371094 C 22.839844 13.371094 22.648438 13.511719 22.550781 13.800781 C 22.441406 14.089844 22.378906 14.539062 22.378906 15.160156 L 22.378906 17.859375 C 22.378906 18.511719 22.429688 18.96875 22.539062 19.25 C 22.640625 19.53125 22.828125 19.671875 23.109375 19.671875 C 23.378906 19.671875 23.570312 19.53125 23.679688 19.25 C 23.789062 18.96875 23.839844 18.5 23.839844 17.859375 L 23.839844 15.160156 C 23.839844 14.539062 23.789062 14.089844 23.679688 13.800781 Z M 28.53125 29.738281 C 28.429688 29.28125 28.269531 28.941406 28.050781 28.730469 C 27.828125 28.53125 27.519531 28.421875 27.128906 28.421875 C 26.820312 28.421875 26.539062 28.511719 26.28125 28.679688 C 26.019531 28.851562 25.820312 29.070312 25.671875 29.351562 L 25.660156 29.351562 L 25.660156 25.5 L 24.070312 25.5 L 24.070312 35.878906 L 25.429688 35.878906 L 25.601562 35.191406 L 25.640625 35.191406 C 25.769531 35.441406 25.949219 35.628906 26.210938 35.769531 C 26.46875 35.921875 26.75 35.988281 27.058594 35.988281 C 27.609375 35.988281 28.019531 35.730469 28.289062 35.21875 C 28.550781 34.710938 28.679688 33.898438 28.679688 32.808594 L 28.679688 31.660156 C 28.679688 30.839844 28.628906 30.199219 28.53125 29.738281 Z M 27.019531 32.71875 C 27.019531 33.25 27 33.671875 26.949219 33.96875 C 26.910156 34.28125 26.839844 34.488281 26.730469 34.621094 C 26.628906 34.738281 26.488281 34.808594 26.320312 34.808594 C 26.179688 34.808594 26.058594 34.769531 25.941406 34.710938 C 25.828125 34.648438 25.730469 34.550781 25.660156 34.421875 L 25.660156 30.269531 C 25.71875 30.070312 25.808594 29.910156 25.949219 29.78125 C 26.078125 29.648438 26.230469 29.589844 26.390625 29.589844 C 26.558594 29.589844 26.679688 29.660156 26.78125 29.789062 C 26.871094 29.921875 26.929688 30.140625 26.96875 30.449219 C 27 30.761719 27.019531 31.199219 27.019531 31.78125 Z M 21.441406 28.570312 L 21.441406 34.378906 C 21.371094 34.511719 21.269531 34.621094 21.140625 34.710938 C 21.011719 34.800781 20.871094 34.839844 20.730469 34.839844 C 20.558594 34.839844 20.441406 34.769531 20.371094 34.628906 C 20.300781 34.488281 20.269531 34.261719 20.269531 33.941406 L 20.269531 28.570312 L 18.621094 28.570312 L 18.621094 34.03125 C 18.621094 34.710938 18.730469 35.199219 18.960938 35.519531 C 19.191406 35.839844 19.550781 36 20.039062 36 C 20.738281 36 21.261719 35.660156 21.609375 34.980469 L 21.648438 34.980469 L 21.789062 35.878906 L 23.078125 35.878906 L 23.078125 28.570312 Z M 14.230469 25.871094 L 14.230469 27.191406 L 15.859375 27.191406 L 15.859375 35.878906 L 17.46875 35.878906 L 17.46875 27.191406 L 19.109375 27.191406 L 19.109375 25.871094 Z M 33.769531 32.769531 L 33.769531 31.519531 C 33.769531 30.75 33.710938 30.140625 33.578125 29.699219 C 33.460938 29.269531 33.25 28.941406 32.949219 28.738281 C 32.640625 28.53125 32.210938 28.429688 31.640625 28.429688 C 30.828125 28.429688 30.25 28.679688 29.910156 29.191406 C 29.570312 29.691406 29.398438 30.488281 29.398438 31.589844 L 29.398438 32.871094 C 29.398438 33.929688 29.570312 34.71875 29.890625 35.230469 C 30.21875 35.738281 30.789062 35.988281 31.601562 35.988281 C 32.28125 35.988281 32.800781 35.828125 33.171875 35.488281 C 33.539062 35.160156 33.71875 34.648438 33.71875 33.980469 C 33.71875 33.859375 33.71875 33.78125 33.710938 33.710938 L 32.289062 33.628906 C 32.289062 34.070312 32.230469 34.390625 32.140625 34.578125 C 32.050781 34.769531 31.878906 34.871094 31.640625 34.871094 C 31.460938 34.871094 31.320312 34.820312 31.230469 34.710938 C 31.140625 34.601562 31.089844 34.429688 31.058594 34.199219 C 31.03125 33.960938 31.019531 33.609375 31.019531 33.140625 L 31.019531 32.769531 Z M 31.011719 31.789062 L 31.011719 31.269531 C 31.011719 30.789062 31.03125 30.441406 31.058594 30.199219 C 31.078125 29.96875 31.140625 29.800781 31.21875 29.699219 C 31.308594 29.589844 31.441406 29.539062 31.609375 29.539062 C 31.789062 29.539062 31.910156 29.589844 32 29.691406 C 32.078125 29.789062 32.140625 29.960938 32.171875 30.199219 C 32.199219 30.441406 32.21875 30.800781 32.21875 31.269531 L 32.21875 31.789062 Z M 28.53125 29.738281 C 28.429688 29.28125 28.269531 28.941406 28.050781 28.730469 C 27.828125 28.53125 27.519531 28.421875 27.128906 28.421875 C 26.820312 28.421875 26.539062 28.511719 26.28125 28.679688 C 26.019531 28.851562 25.820312 29.070312 25.671875 29.351562 L 25.660156 29.351562 L 25.660156 25.5 L 24.070312 25.5 L 24.070312 35.878906 L 25.429688 35.878906 L 25.601562 35.191406 L 25.640625 35.191406 C 25.769531 35.441406 25.949219 35.628906 26.210938 35.769531 C 26.46875 35.921875 26.75 35.988281 27.058594 35.988281 C 27.609375 35.988281 28.019531 35.730469 28.289062 35.21875 C 28.550781 34.710938 28.679688 33.898438 28.679688 32.808594 L 28.679688 31.660156 C 28.679688 30.839844 28.628906 30.199219 28.53125 29.738281 Z M 27.019531 32.71875 C 27.019531 33.25 27 33.671875 26.949219 33.96875 C 26.910156 34.28125 26.839844 34.488281 26.730469 34.621094 C 26.628906 34.738281 26.488281 34.808594 26.320312 34.808594 C 26.179688 34.808594 26.058594 34.769531 25.941406 34.710938 C 25.828125 34.648438 25.730469 34.550781 25.660156 34.421875 L 25.660156 30.269531 C 25.71875 30.070312 25.808594 29.910156 25.949219 29.78125 C 26.078125 29.648438 26.230469 29.589844 26.390625 29.589844 C 26.558594 29.589844 26.679688 29.660156 26.78125 29.789062 C 26.871094 29.921875 26.929688 30.140625 26.96875 30.449219 C 27 30.761719 27.019531 31.199219 27.019531 31.78125 Z M 21.441406 28.570312 L 21.441406 34.378906 C 21.371094 34.511719 21.269531 34.621094 21.140625 34.710938 C 21.011719 34.800781 20.871094 34.839844 20.730469 34.839844 C 20.558594 34.839844 20.441406 34.769531 20.371094 34.628906 C 20.300781 34.488281 20.269531 34.261719 20.269531 33.941406 L 20.269531 28.570312 L 18.621094 28.570312 L 18.621094 34.03125 C 18.621094 34.710938 18.730469 35.199219 18.960938 35.519531 C 19.191406 35.839844 19.550781 36 20.039062 36 C 20.738281 36 21.261719 35.660156 21.609375 34.980469 L 21.648438 34.980469 L 21.789062 35.878906 L 23.078125 35.878906 L 23.078125 28.570312 Z M 14.230469 25.871094 L 14.230469 27.191406 L 15.859375 27.191406 L 15.859375 35.878906 L 17.46875 35.878906 L 17.46875 27.191406 L 19.109375 27.191406 L 19.109375 25.871094 Z M 33.769531 32.769531 L 33.769531 31.519531 C 33.769531 30.75 33.710938 30.140625 33.578125 29.699219 C 33.460938 29.269531 33.25 28.941406 32.949219 28.738281 C 32.640625 28.53125 32.210938 28.429688 31.640625 28.429688 C 30.828125 28.429688 30.25 28.679688 29.910156 29.191406 C 29.570312 29.691406 29.398438 30.488281 29.398438 31.589844 L 29.398438 32.871094 C 29.398438 33.929688 29.570312 34.71875 29.890625 35.230469 C 30.21875 35.738281 30.789062 35.988281 31.601562 35.988281 C 32.28125 35.988281 32.800781 35.828125 33.171875 35.488281 C 33.539062 35.160156 33.71875 34.648438 33.71875 33.980469 C 33.71875 33.859375 33.71875 33.78125 33.710938 33.710938 L 32.289062 33.628906 C 32.289062 34.070312 32.230469 34.390625 32.140625 34.578125 C 32.050781 34.769531 31.878906 34.871094 31.640625 34.871094 C 31.460938 34.871094 31.320312 34.820312 31.230469 34.710938 C 31.140625 34.601562 31.089844 34.429688 31.058594 34.199219 C 31.03125 33.960938 31.019531 33.609375 31.019531 33.140625 L 31.019531 32.769531 Z M 31.011719 31.789062 L 31.011719 31.269531 C 31.011719 30.789062 31.03125 30.441406 31.058594 30.199219 C 31.078125 29.96875 31.140625 29.800781 31.21875 29.699219 C 31.308594 29.589844 31.441406 29.539062 31.609375 29.539062 C 31.789062 29.539062 31.910156 29.589844 32 29.691406 C 32.078125 29.789062 32.140625 29.960938 32.171875 30.199219 C 32.199219 30.441406 32.21875 30.800781 32.21875 31.269531 L 32.21875 31.789062 Z M 31.011719 31.789062 "/>
</g>
</svg>
