<?xml version="1.0" encoding="UTF-8"?>
<svg xmlns="http://www.w3.org/2000/svg" viewBox="0 0 96 96" width="96px" height="96px">
<g id="surface1135502">
<path style=" stroke:none;fill-rule:nonzero;fill:rgb(90.196079%,94.509804%,97.647059%);fill-opacity:1;" d="M 68 12 L 28 12 C 19.164062 12 12 19.164062 12 28 L 12 68 C 12 76.835938 19.164062 84 28 84 L 50.484375 84 L 50.484375 56.15625 L 41.113281 56.15625 L 41.113281 45.257812 L 50.484375 45.257812 L 50.484375 37.234375 C 50.484375 27.941406 56.167969 22.871094 64.464844 22.871094 C 67.261719 22.863281 70.050781 23.007812 72.832031 23.292969 L 72.832031 33.011719 L 67.121094 33.011719 C 62.601562 33.011719 61.71875 35.148438 61.71875 38.300781 L 61.71875 45.238281 L 72.519531 45.238281 L 71.117188 56.140625 L 61.65625 56.140625 L 61.65625 84 L 68 84 C 76.835938 84 84 76.835938 84 68 L 84 28 C 84 19.164062 76.835938 12 68 12 Z M 68 12 "/>
</g>
</svg>
